<svg width="30" height="30" viewBox="0 0 30 30" fill="none" xmlns="http://www.w3.org/2000/svg">
<path fill-rule="evenodd" clip-rule="evenodd" d="M30 16.8032V13.1177H26.1034C25.8239 11.4457 25.1679 9.85916 24.1852 8.47785L26.9392 5.72406L24.2775 3.06249L21.5235 5.81629C20.1421 4.83293 18.5555 4.17583 16.8834 3.89447V0H13.1185V3.89447C11.4461 4.17494 9.85934 4.83213 8.47838 5.81629L5.72441 3.06249L3.11727 5.66759L5.86371 8.41385C4.85439 9.80955 4.18059 11.4192 3.89471 13.1177H0V16.8032H3.88342C4.15533 18.5039 4.81629 20.1188 5.81477 21.5221L3.0608 24.2759L5.72253 26.9375L8.4765 24.1837C9.83184 25.1493 11.4074 25.8157 13.1166 26.1055V30H16.8815V26.1055C18.58 25.8193 20.1897 25.1456 21.5856 24.1367L24.3302 26.881L26.9373 24.2759L24.1833 21.5221C25.1814 20.1186 25.8423 18.5038 26.1147 16.8032H30ZM15.0386 20.7429C13.525 20.7043 12.0864 20.076 11.0295 18.9919C9.97258 17.9078 9.38106 16.4538 9.38106 14.9398C9.38106 13.4258 9.97258 11.9717 11.0295 10.8876C12.0864 9.80352 13.525 9.17521 15.0386 9.13665C16.5522 9.17521 17.9908 9.80352 19.0477 10.8876C20.1046 11.9717 20.6961 13.4258 20.6961 14.9398C20.6961 16.4538 20.1046 17.9078 19.0477 18.9919C17.9908 20.076 16.5522 20.7043 15.0386 20.7429Z" fill="white"/>
</svg>
