<svg width="30" height="30" viewBox="0 0 30 30" fill="none" xmlns="http://www.w3.org/2000/svg">
<path d="M3.9832 16.1666L0.495704 18.4797C0.345943 18.5792 0.220725 18.7274 0.13342 18.9085C0.0461145 19.0896 0 19.2968 0 19.508C0 19.7191 0.0461145 19.9263 0.13342 20.1074C0.220725 20.2886 0.345943 20.4368 0.495704 20.5363L14.5582 29.8632C14.6938 29.953 14.8452 30 14.9988 30C15.1525 30 15.3038 29.953 15.4395 29.8632L29.502 20.5363C29.6517 20.4368 29.7769 20.2886 29.8642 20.1074C29.9515 19.9263 29.9977 19.7191 29.9977 19.508C29.9977 19.2968 29.9515 19.0896 29.8642 18.9085C29.7769 18.7274 29.6517 18.5792 29.502 18.4797L26.0145 16.1666L16.3207 22.5929C15.9138 22.8623 15.4598 23.0033 14.9988 23.0033C14.5378 23.0033 14.0839 22.8623 13.677 22.5929L3.9832 16.1666Z" fill="white"/>
<path d="M14.5582 0.136795C14.6938 0.0469767 14.8452 0 14.9988 0C15.1525 0 15.3038 0.0469767 15.4395 0.136795L29.502 9.4637C29.6517 9.56321 29.7769 9.71143 29.8642 9.89254C29.9515 10.0736 29.9977 10.2808 29.9977 10.492C29.9977 10.7032 29.9515 10.9103 29.8642 11.0915C29.7769 11.2726 29.6517 11.4208 29.502 11.5203L15.4395 20.8472C15.3038 20.937 15.1525 20.984 14.9988 20.984C14.8452 20.984 14.6938 20.937 14.5582 20.8472L0.495704 11.5203C0.345943 11.4208 0.220725 11.2726 0.13342 11.0915C0.0461145 10.9103 0 10.7032 0 10.492C0 10.2808 0.0461145 10.0736 0.13342 9.89254C0.220725 9.71143 0.345943 9.56321 0.495704 9.4637L14.5582 0.136795Z" fill="white"/>
</svg>
