<svg width="25" height="25" viewBox="0 0 23 23" fill="none" xmlns="http://www.w3.org/2000/svg">
<circle cx="11.5" cy="11.5" r="11.5" fill="black"/>
<path d="M11.34 16.098C10.6587 16.098 10.0427 15.9813 9.492 15.748C8.95067 15.5147 8.52133 15.1787 8.204 14.74C7.88667 14.3013 7.72333 13.7833 7.714 13.186H9.814C9.842 13.5873 9.982 13.9047 10.234 14.138C10.4953 14.3713 10.85 14.488 11.298 14.488C11.7553 14.488 12.1147 14.3807 12.376 14.166C12.6373 13.942 12.768 13.6527 12.768 13.298C12.768 13.0087 12.6793 12.7707 12.502 12.584C12.3247 12.3973 12.1007 12.2527 11.83 12.15C11.5687 12.038 11.2047 11.9167 10.738 11.786C10.1033 11.5993 9.58533 11.4173 9.184 11.24C8.792 11.0533 8.45133 10.778 8.162 10.414C7.882 10.0407 7.742 9.546 7.742 8.93C7.742 8.35133 7.88667 7.84733 8.176 7.418C8.46533 6.98867 8.87133 6.662 9.394 6.438C9.91667 6.20467 10.514 6.088 11.186 6.088C12.194 6.088 13.0107 6.33533 13.636 6.83C14.2707 7.31533 14.6207 7.99667 14.686 8.874H12.53C12.5113 8.538 12.3667 8.26267 12.096 8.048C11.8347 7.824 11.4847 7.712 11.046 7.712C10.6633 7.712 10.3553 7.81 10.122 8.006C9.898 8.202 9.786 8.48667 9.786 8.86C9.786 9.12133 9.87 9.34067 10.038 9.518C10.2153 9.686 10.43 9.826 10.682 9.938C10.9433 10.0407 11.3073 10.162 11.774 10.302C12.4087 10.4887 12.9267 10.6753 13.328 10.862C13.7293 11.0487 14.0747 11.3287 14.364 11.702C14.6533 12.0753 14.798 12.5653 14.798 13.172C14.798 13.6947 14.6627 14.18 14.392 14.628C14.1213 15.076 13.7247 15.4353 13.202 15.706C12.6793 15.9673 12.0587 16.098 11.34 16.098Z" fill="#FFC306"/>
</svg>
